HIERARCHY
ROOT base
{
	OFFSET 0.0 0.0 0.0
	CHANNELS 6 Xposition Yposition Zposition Zrotation Yrotation Xrotation
	JOINT root
	{
		OFFSET 0 0 0
		CHANNELS 6 Xposition Yposition Zposition Zrotation Yrotation Xrotation
		JOINT chest
		{
			OFFSET 0 4.72302 0
			CHANNELS 3 Zrotation Yrotation Xrotation
			JOINT neck
			{
				OFFSET 0 4.47788 0
				CHANNELS 3 Zrotation Yrotation Xrotation
				End Site
				{
					OFFSET 0.0 0.0 0.0
				}
			}
			JOINT right_shoulder
			{
				OFFSET -0.481 4.87 3.6622
				CHANNELS 3 Zrotation Yrotation Xrotation
				JOINT right_elbow
				{
					OFFSET 0 -5.49576 0
					CHANNELS 3 Zrotation Yrotation Xrotation
					JOINT right_wrist
					{
						OFFSET 0 -5.17894 0
						CHANNELS 3 Zrotation Yrotation Xrotation
						End Site
						{
							OFFSET 0.0 0.0 0.0
						}
					}
				}
			}
			JOINT left_shoulder
			{
				OFFSET -0.481 4.87 -3.6622
				CHANNELS 3 Zrotation Yrotation Xrotation
				JOINT left_elbow
				{
					OFFSET 0 -5.49576 0
					CHANNELS 3 Zrotation Yrotation Xrotation
					JOINT left_wrist
					{
						OFFSET 0 -5.17894 0
						CHANNELS 3 Zrotation Yrotation Xrotation
						End Site
						{
							OFFSET 0.0 0.0 0.0
						}
					}
				}
			}
		}
		JOINT right_hip
		{
			OFFSET 0 0 1.69774
			CHANNELS 3 Zrotation Yrotation Xrotation
			JOINT right_knee
			{
				OFFSET 0 -8.43092 0
				CHANNELS 3 Zrotation Yrotation Xrotation
				JOINT right_ankle
				{
					OFFSET 0 -8.1974 0
					CHANNELS 3 Zrotation Yrotation Xrotation
					End Site
					{
						OFFSET 0.0 0.0 0.0
					}
				}
			}
		}
		JOINT left_hip
		{
			OFFSET 0 0 -1.69774
			CHANNELS 3 Zrotation Yrotation Xrotation
			JOINT left_knee
			{
				OFFSET 0 -8.43092 0
				CHANNELS 3 Zrotation Yrotation Xrotation
				JOINT left_ankle
				{
					OFFSET 0 -8.1974 0
					CHANNELS 3 Zrotation Yrotation Xrotation
					End Site
					{
						OFFSET 0.0 0.0 0.0
					}
				}
			}
		}
	}
	JOINT red_arrow
	{
		OFFSET 0 0 0
		CHANNELS 3 Zrotation Yrotation Xrotation
		End Site
		{
			OFFSET 0.0 0.0 0.0
		}
	}
	JOINT blue_arrow
	{
		OFFSET 0 0 0
		CHANNELS 3 Zrotation Yrotation Xrotation
		End Site
		{
			OFFSET 0.0 0.0 0.0
		}
	}
}
MOTION
Frames: 14
Frame Time: 0.0333333333333333
0 18.08466 0 0 0 0 0 0 0 0 -90 0 0 0 0 0 0 0 0 0 -90 0 0 0 0 0 0 0 0 90 0 0 0 0 0 0 0 0 0 0 0 0 0 0 0 0 0 0 0 0 0 0 0 0 0 0 0 0 0 0
1.88041839003563 0 -0.0498872369527817 0 -6.09811522499135 0 0 15.8822206616402 0 -23.8811439436897 0 -9.05046588441466 -4.15446116762834 4.30235559284122 6.93568085989034 1.10376834883874 -3.03680368519381 1.12141626408512 -5.05572352726599 16.7110102379306 -29.6624499579039 80.0759903574489 0 0 0 0 0 -14.376440835327 -17.867964460796 35.3591877145518 73.4263230871996 0 0 0 0 0 51.227004053298 -1.32721726445006 9.7564285658819 -48.6964108385908 0 0 21.6700150273566 2.55511560049368 -1.01686310006802 25.8517761287539 5.60511033870144 13.2520724573772 -87.739052794853 0 0 -1.12924648782994 4.3671991670127 -17.0968984705257 0 0 0 0 0 0
3.81865592598915 0 -0.271868717670441 0 -6.18943022065177 0 0 16.0068837285042 0 -24.6187782846572 -1.57735779591924 -7.18165149514569 -4.63792071943614 7.94287898659899 2.80347939274446 2.41651995393537 -4.48676477722958 1.48068780773786 9.87219620636855 23.5065461743746 -30.455933741989 84.3643451184089 0 0 0 0 0 -24.5709853161146 -14.1073376234063 35.8850107289421 66.5845021050303 0 0 0 0 0 44.1030685176731 0.971526346669546 8.10530186586677 -46.8550464798687 0 0 27.8468011967897 4.45271041819273 -0.153736449208463 42.9319647449405 1.99302566049952 14.1416283442319 -91.7168456844417 0 0 5.69337297054843 6.82852415250072 -18.0082167891614 0 0 0 0 0 0
5.92063781023025 0 -0.642642445489764 0 -6.2296666830843 0 0 16.2088817000389 0 -24.7822427812534 -0.694095919760363 -4.41603644412123 -5.77765991197398 9.77493370050867 -1.53614816827058 4.38796987632728 -5.07019078190726 1.85211711821585 25.0396446296685 30.3553897255701 -32.3584490594522 90.441997706048 0 0 0 0 0 -36.6397550114815 -11.1317194702794 37.0726384083999 58.2094744089224 0 0 0 0 0 32.8665632943245 3.79650836403746 3.56036057238426 -39.3048153524586 0 0 31.6243791122016 4.2267297243169 1.29446752905671 59.724930777232 -1.74763638041028 10.9675704222424 -92.4906104947558 0 0 12.9959417091917 9.92690890754188 -19.6046044636727 0 0 0 0 0 0
8.06266644597054 0 -1.0722401401028 0 -6.10903292544222 0 0 16.3372691512108 0 -25.791412656394 2.06392575446389 -1.90692374143754 -6.71663938141859 10.2643236930711 -5.22722570773493 5.98339914835411 -4.63948931201682 2.18392910888568 37.8929987975988 36.0102617169458 -34.8516101732099 97.4079505461931 0 0 0 0 0 -49.7231573472545 -6.89215464041864 38.4127854579199 54.4753041217443 0 0 0 0 0 20.706944764846 4.17235293933957 -1.97936190940785 -28.6478214546495 0 0 30.3329115525009 2.78940070541153 2.25816078888516 75.1462288291559 -3.90620848871673 5.12194754065007 -86.5286681418459 0 0 19.0404511534707 13.3727647223616 -22.1669720283318 0 0 0 0 0 0
10.2060732245445 0 -1.48458198904991 0 -5.80009160272473 0 0 16.4385991096497 0 -27.5968183107601 5.20596694110345 -0.636831517363841 -7.30364333754298 10.8144585656374 -7.64355304793304 5.93490670987942 -3.73161486657197 2.4447688978604 44.9614692525416 38.123330151087 -37.7380839736513 103.881993162314 0 0 0 0 0 -59.9076047300021 -0.798832702578706 38.5671620378894 54.4579486110633 0 0 0 0 0 10.5878062015755 2.68487767283023 -5.60581506184618 -19.2051054176743 0 0 20.0045296371898 1.0234956119438 2.56115333751186 85.4743481005606 -3.47485308585934 -0.29266554485263 -74.2041723506374 0 0 22.1543211498474 16.1222189464065 -24.6740373823537 0 0 0 0 0 0
12.4038108348846 0 -1.87346080243587 0 -5.30524167664775 0 0 16.4771786093712 0 -28.9885670305442 8.24152447580486 -0.211602485414979 -8.04680394528394 11.0145900548592 -8.91949592817073 4.78166181025162 -2.86838370379014 2.45083696483622 46.2893112379616 37.1553141613021 -40.9430759020905 108.189581735977 0 0 0 0 0 -66.0323980029652 5.42807751783657 37.6703005749504 55.7133237201333 0 0 0 0 0 2.62098371873234 -0.996878741805556 -7.28802671631461 -12.395166904777 0 0 1.41513247706722 0.542053814752129 3.58426789899851 89.4183162867843 -1.4801599115988 -4.67614683463015 -60.3301320329955 0 0 24.1269354827821 16.6321362976982 -24.7848604806915 0 0 0 0 0 0
14.7329996466637 0 -2.26841021180153 0 -4.69650975933366 0 0 16.3480613589287 0 -28.8068557869347 10.1664963379081 0.319612525489414 -8.61131646979945 10.4357395772742 -9.49062061614961 3.85876109585864 -2.60058995335128 2.32459184596309 44.1019641837098 34.8614598266382 -42.4092029290635 108.987921566924 0 0 0 0 0 -67.9448561662461 10.3499556343783 35.5394341216647 57.3939839729688 0 0 0 0 0 -4.34745644566883 -3.83062436742293 -8.06708614182079 -10.0818031772349 0 0 -19.3865697389219 -0.839539022333783 11.3711349862315 87.7742492367518 0.890730761228807 -7.27737956746221 -48.4254708945947 0 0 24.9627476108031 14.7093721706043 -22.6546094763137 0 0 0 0 0 0
17.2113150894642 0 -2.6426968254149 0 -4.06215262764285 0 0 16.0371860027313 0 -26.8727559208658 10.7835251284339 0.937284546058651 -8.82169506281437 9.17296736662581 -9.66387717258388 4.19015419681141 -3.14653398161605 2.40282579465224 38.5330522664489 32.3220577231158 -41.1786406285948 105.714717331736 0 0 0 0 0 -65.4757429487588 12.8014463486582 32.8261941215123 59.7190076871978 0 0 0 0 0 -9.02564878269327 -9.53295638617792 -8.74746379599083 -16.4079021883859 0 0 -29.7390755245341 -0.077332576524623 18.9750161979257 81.7177021285153 2.96585335607659 -7.87962996315787 -40.1095789763208 0 0 23.4857105414048 12.315940935418 -20.8569644213134 0 0 0 0 0 0
19.77807700634 0 -2.98364396542311 0 -3.44914130127482 0 0 15.5780593156815 0 -24.0168950941257 10.6630374007119 1.47587484095789 -8.37931599727822 7.45559799126618 -9.58373813440155 5.42570300722895 -4.12997119120431 2.22931158470833 29.9210923909606 30.3129065384586 -38.0070125462622 99.1504888978143 0 0 0 0 0 -58.3118763033299 12.4759602773122 30.6757318157144 62.8283693445761 0 0 0 0 0 -10.6140778001022 -13.7518068542619 -9.93998188847578 -31.7169123166813 0 0 -30.4833501802297 -1.1037246229473 20.5631710494694 72.5456909054415 4.69365496933003 -7.11553257753183 -35.1211571461911 0 0 20.0428450168213 10.3699183076734 -19.4524738369905 0 0 0 0 0 0
22.2212807238102 0 -3.30420647710562 0 -2.78938870777339 0 0 15.096643781662 0 -22.026878386094 11.6462562176181 1.84761236920052 -7.05857460711924 4.45622851269451 -9.26981268972806 6.67238233547619 -5.21134727713578 1.82576032617528 19.3577387058336 28.8971642455168 -33.8638535671661 90.3365190946955 0 0 0 0 0 -47.5487514685952 9.44809423285067 29.5268811992512 66.5539711594404 0 0 0 0 0 -8.3871184978042 -15.1582126025215 -11.1428253039669 -50.5250232341324 0 0 -26.8900247740598 -2.57918484800152 21.8965992785603 65.2012411896433 10.1172270220017 -7.51827768850076 -35.7818857408361 0 0 1.03347522167185 10.8351837392286 1.49739379585375 0 0 0 0 0 0
24.2162279844284 0 -3.61836534962058 0 -1.97383229255208 0 0 15.1074130296707 0 -22.9734975549107 14.3191111147012 2.14222681679899 -4.26837896438478 1.50233901494193 -8.22111830182086 5.61552308181344 -6.10385648863543 0.462754399752569 6.78471705291066 28.6342238417822 -30.9880710499142 80.1153049263115 0 0 0 0 0 -33.7882276969131 4.50176697453965 29.731131363031 70.6010768087264 0 0 0 0 0 0.866052226910896 -13.8681216332126 -12.4499531445483 -68.0770487028399 0 0 -22.0942973979361 -3.6850638043475 25.2448659438394 63.144864425509 12.8478401597613 -9.54547109891023 -44.7219135152766 0 0 3.98569114951535 7.26866312100864 8.14811222052523 0 0 0 0 0 0
26.0271223962307 0 -3.9855506002903 0 -1.07898861858448 0 0 15.5868996739387 0 -23.4486073398958 15.6697737204451 2.88064402160731 -2.0403802999242 0.528605115831098 -5.95687431319095 3.62336859838232 -6.3347893612369 -0.167076743938228 -5.93455022624112 28.3608645915685 -29.8520897864168 71.0245758580238 0 0 0 0 0 -20.5973416194744 -0.126512970107814 30.2771567646902 74.4644435391499 0 0 0 0 0 12.1820456563717 -10.3637401708104 -14.983456522509 -81.8869603743644 0 0 -17.2734737802334 -5.74005603239163 26.2303528239509 55.9474037705528 13.7294577952386 -11.4548791267138 -45.0919116928054 0 0 11.1137335961195 3.86354667295517 8.28812336660808 0 0 0 0 0 0
27.8171201109886 0 -4.24428153708577 0 -0.277557106150585 0 0 16.0728268146515 0 -22.4533408556898 14.1207817239725 2.82271568857844 -1.83876572443849 0.585045548393655 -4.29207455196177 3.56257283420103 -6.55676990429712 0.501323062596829 -15.3116701080734 25.4900025575579 -31.1081282015503 66.6530976948648 0 0 0 0 0 -4.22449206685511 -8.41072303947543 31.0438501557865 78.0451633813399 0 0 0 0 0 23.675563272361 -6.45202060509272 -16.466288637654 -90.1327404008082 0 0 -10.7373028420787 -8.54632983136354 25.6634344241177 48.4924863392519 10.4508646762526 -10.4602367448775 -44.7380020258666 0 0 15.2893838926779 0.911338440260444 5.84294924487967 0 0 0 0 0 0
